# xmcd CD database file
#
# Track frame offsets:
#	150
#	13562
#	27692
#	42475
#	54802
#	68192
#	80542
#	92790
#	104507
#	118140
#	131235
#	143987
#
# Disc length: 2098 seconds
#
# Revision: 4
# Processed by: cddbd v1.5.2PL0 Copyright (c) Steve Scherf et al.
# Submitted via: CDex 1.51
#
DISCID=ad08300c
DTITLE=Muddy Waters - The Real Folk Blues
DYEAR=1900
DGENRE=Blues
TTITLE0=Mannish Boy
TTITLE1=Screamin' And Cryin'
TTITLE2=Just To Be With You
TTITLE3=Walking In The Park
TTITLE4=Walkin' Blues
TTITLE5=Canary Bird
TTITLE6=Same Thing
TTITLE7=Gypsy Woman
TTITLE8=Rollin' And Tumblin'
TTITLE9=40 Days And 40 Nights
TTITLE10=Little Geneva
TTITLE11=You Can't Lose What You Ain't Never Had
EXTD=
EXTT0=
EXTT1=
EXTT2=
EXTT3=
EXTT4=
EXTT5=
EXTT6=
EXTT7=
EXTT8=
EXTT9=
EXTT10=
EXTT11=
PLAYORDER=
